<?xml version="1.0" standalone="no"?><!DOCTYPE svg PUBLIC "-//W3C//DTD SVG 1.1//EN" "http://www.w3.org/Graphics/SVG/1.1/DTD/svg11.dtd"><svg t="1583462402294" class="icon" viewBox="0 0 1024 1024" version="1.1" xmlns="http://www.w3.org/2000/svg" p-id="7702" xmlns:xlink="http://www.w3.org/1999/xlink" width="200" height="200"><defs><style type="text/css">html, * { user-select: text !important; }
</style></defs><path d="M876.809 110.64H220.004c-38.428 0-73.227 16.789-100.596 48.563-25.034 29.035-38.272 63.657-45.013 87.955-2.525 7.57-19.368 58.104-35.981 112.172C0.802 481.775 0.802 502.906 0.802 511.913v170.63c0 80.031 64.166 145.32 143.733 147.16 14.278 47.572 58.47 82.353 110.634 82.353 52.149 0 96.327-34.75 110.604-82.317h324.11c14.278 47.567 58.458 82.317 110.607 82.317 53.729 0 98.998-36.881 111.833-86.654C976.384 809.471 1024 751.466 1024 682.543V257.849c0-81.154-66.026-147.195-147.191-147.195v-0.014zM255.155 838.877c-23.339-0.038-42.253-18.946-42.287-42.291 0.024-23.344 18.943-42.268 42.287-42.302 23.354 0.023 42.277 18.948 42.307 42.302-0.035 23.35-18.959 42.263-42.307 42.291z m545.336 0c-23.345-0.038-42.253-18.946-42.295-42.291 0.031-23.344 18.944-42.268 42.295-42.302 18.872 0.028 35.446 12.539 40.653 30.682a36.567 36.567 0 0 0 0.881 19.562c-3.835 19.914-21.255 34.321-41.534 34.349z m150.346-156.334c-0.028 29.458-17.507 56.101-44.514 67.868-18.391-42.068-59.926-69.267-105.832-69.311-49.62 0-92.004 31.467-108.315 75.47H363.488c-16.33-44.016-58.714-75.454-108.333-75.454-49.585 0-91.989 31.438-108.299 75.424-40.406-0.663-72.837-33.581-72.889-73.997V511.949c0.049-3.377 1.953-25.625 34.573-131.732a5240.04 5240.04 0 0 1 35.546-110.766c0.225-0.655 0.425-1.314 0.61-1.983 3.81-13.976 25.386-83.666 75.308-83.666h656.804c40.867 0.044 73.984 33.162 74.028 74.028v424.713z m0 0" p-id="7703" fill="#ffc53d"></path><path d="M244.306 252.389H99.688c-20.208 0-36.591 16.384-36.591 36.591 0 20.208 16.383 36.592 36.591 36.592h144.617c6.937 0.014 12.554 5.641 12.563 12.577v124.61c0 6.932-5.637 12.568-12.563 12.568H37.936c-20.208 0-36.591 16.378-36.591 36.585 0 20.21 16.383 36.593 36.591 36.593h206.37c47.333-0.055 85.693-38.409 85.742-85.747v-124.61c-0.044-47.335-38.404-85.706-85.742-85.759z m291.518 0H450.67c-47.343 0.043-85.717 38.418-85.761 85.76v124.61c0.054 47.337 38.414 85.692 85.747 85.747h85.168c47.335-0.055 85.694-38.409 85.748-85.747v-124.61c-0.045-47.336-38.408-85.707-85.748-85.76z m12.58 210.37c0 6.932-5.647 12.568-12.58 12.568H450.67c-6.941 0-12.578-5.624-12.598-12.568v-124.61c0.01-6.94 5.637-12.567 12.583-12.577h85.168c6.947 0.01 12.575 5.637 12.58 12.577v124.61z m281.232-210.37h-85.153c-47.35 0.043-85.718 38.418-85.762 85.76v124.61c0.054 47.337 38.412 85.692 85.746 85.747h85.169c47.334-0.055 85.695-38.409 85.749-85.747v-124.61c-0.047-47.336-38.41-85.707-85.749-85.76z m12.579 210.37c0 6.932-5.632 12.568-12.579 12.568h-85.153c-6.938-0.01-12.564-5.627-12.579-12.568v-124.61c0.005-6.937 5.627-12.563 12.563-12.577h85.169c6.947 0.01 12.574 5.637 12.579 12.577v124.61z m0 0" p-id="7704" fill="#ffc53d"></path></svg>