<?xml version="1.0" standalone="no"?><!DOCTYPE svg PUBLIC "-//W3C//DTD SVG 1.1//EN" "http://www.w3.org/Graphics/SVG/1.1/DTD/svg11.dtd"><svg t="1579159946798" class="icon" viewBox="0 0 1190 1024" version="1.1" xmlns="http://www.w3.org/2000/svg" p-id="16385" xmlns:xlink="http://www.w3.org/1999/xlink" width="232.421875" height="200"><defs><style type="text/css">html, * { user-select: text !important; }
</style></defs><path d="M86.630896 306.947099l3.264155-9.191206c8.377956-25.007419 30.236513-41.762092 56.881588-43.616697 24.309462-1.752949 48.633801 12.440484 60.03293 34.783768 11.642111 22.799496 8.377956 49.671438-8.493249 69.680348a485.24831 485.24831 0 0 0-6.170034 6.978325c47.113918 28.84308 93.99601 57.356397 140.643796 86.082944 17.685695 10.934237 35.482964 21.873433 53.167419 32.459312 10.116029 5.93201 17.912562 4.193937 23.384639-5.698944a361571.259816 361571.259816 0 0 0 161.346945-294.310741c-23.384639-11.868978-38.504136-30.023283-39.898809-56.885307-0.924823-18.838625 5.700184-35.013114 19.080368-48.150315 26.518625-25.830586 70.033666-23.38092 93.307971 5.229094 26.745492 32.803952 17.099312 71.191554-25.365695 100.049511a12596.660378 12596.660378 0 0 0 41.878625 76.193782c38.973985 70.963448 77.704988 141.685153 116.677733 212.643642 8.949462 16.401356 14.648407 17.912562 30.72124 8.382915 60.2474-36.766063 120.391903-73.757753 180.644262-110.63539 2.804223-1.738073 5.481995-3.491022 8.731273-5.472077-12.440484-12.440484-20.363467-26.517385-21.28829-43.85968-1.752949-32.459312 20.590334-60.847419 51.884319-66.188088 32.575845-5.700184 62.823516 12.910334 72.474654 44.431187 0.697956 2.436029 1.74799 5.002228 2.677772 7.438256v21.873434c-10.247438 32.798993-31.292746 51.879361-67.462508 52.111186-1.293017 3.719128-2.677772 7.438257-3.729046 11.167303-35.239981 120.866712-70.508475 241.96153-105.733579 362.83816-4.532378 15.821172-10.130906 19.893617-26.077288 19.893617H290.441608c-17.099312 0-22.343283-3.962111-26.987235-19.893617-28.741424-98.064736-57.123332-196.484029-85.854838-294.552484-7.666363-26.517385-15.588107-53.03601-23.37968-79.684804-26.993433 0-47.342024-10.697453-60.03417-33.970518-3.022412-5.700184-5.002228-12.097085-7.438256-18.150586-0.116533-7.539913-0.116533-14.764939-0.116533-21.97633m507.544484 531.525424h284.421579c25.365695 0 45.61263 17.913801 48.406934 42.005075 2.789346 24.302024-13.138441 46.412242-37.689646 51.870683-3.491022 0.9397-7.21015 1.056232-10.717288 1.056232H309.521976c-21.63169 0-39.898809-12.925211-46.184136-32.460552-6.508475-19.551458-0.46985-41.636881 16.871206-52.822779 8.964339-5.685308 20.8234-9.647419 31.293985-9.647419 94.348087-0.47109 188.566005-0.00124 282.672349-0.00124" p-id="16386" fill="#ffffff"></path></svg>