<?xml version="1.0" standalone="no"?><!DOCTYPE svg PUBLIC "-//W3C//DTD SVG 1.1//EN" "http://www.w3.org/Graphics/SVG/1.1/DTD/svg11.dtd"><svg t="1580462789335" class="icon" viewBox="0 0 1024 1024" version="1.1" xmlns="http://www.w3.org/2000/svg" p-id="8738" xmlns:xlink="http://www.w3.org/1999/xlink" width="200" height="200" fill="#c9c9c9"><defs><style type="text/css">html, * { user-select: text !important; }
</style></defs><path d="M549.745326 24.922751c22.755556 25.283951 45.149912 48.761905 65.377073 73.684656 78.380247 96.079012 132.198942 205.883598 170.847266 323.273369 21.671958 66.099471 37.925926 133.28254 48.400705 201.910406 1.805996 11.558377 3.611993 23.477954 4.334392 35.036331 0.361199 3.250794-2.167196 7.223986-4.334392 10.11358-18.421164 21.310758-41.17672 37.203527-65.738271 50.206702-45.511111 24.200353-93.911817 39.009524-144.479718 48.400706h-3.250794c2.889594-8.668783 5.779189-16.976367 8.668783-24.922751 14.809171-44.427513 23.477954-89.938624 27.812346-136.533334 6.140388-64.654674 4.334392-129.309347-3.611993-193.964021-14.447972-118.112169-45.511111-232.251146-88.493827-343.500529-5.05679-13.364374-10.835979-26.728748-16.253968-40.093122-0.361199 0-0.361199-0.361199 0.722398-3.611993z" p-id="8739"></path><path d="M87.04903 906.24903c22.033157-32.507937 50.206702-52.373898 84.881834-63.571076 30.340741-9.752381 61.765079-13.725573 93.550617-15.53157 70.795062-3.611993 141.951323-5.779189 212.746385-10.11358 49.845503-2.889594 100.052205-6.501587 149.536508-12.641975 60.681481-7.223986 119.195767-23.116755 171.930864-55.985891 60.320282-37.564727 96.801411-91.744621 105.831393-162.178483 12.280776-95.356614-1.805996-186.740035-52.012698-270.177072-38.287125-63.209877-91.744621-111.610582-154.954497-149.175309-3.973192-2.528395-7.585185-5.417989-10.47478-9.029982-16.253968-19.143563-32.507937-38.287125-49.123104-58.153087 1.444797-0.361199 2.167196-0.722399 2.528395-0.361199 101.497002 37.564727 184.57284 98.246208 241.281129 192.158025 31.785538 52.373898 50.929101 109.443386 57.791887 170.486067 9.029982 79.825044-0.722399 156.760494-36.481129 229.722751-19.865961 40.093122-43.343915 77.657848-74.407054 110.165785-37.203527 39.370723-82.353439 63.932275-135.088537 75.129453-50.206702 10.835979-101.135802 11.558377-151.703703 6.501587-49.123104-4.695591-98.246208-11.558377-147.369312-17.337566-52.735097-6.140388-105.470194-9.391182-158.566491-4.695591-43.343915 3.611993-86.326631 10.835979-125.697354 31.06314-7.946384 3.973192-15.17037 8.307584-24.200353 13.725573z" p-id="8740"></path><path d="M574.668078 209.85679c8.307584 28.895944 17.698765 57.791887 25.28395 87.04903 18.059965 72.601058 23.477954 146.646914 20.227161 221.415168-3.611993 82.353439-17.698765 162.539683-43.705115 240.919929-2.528395 7.946384-6.501587 12.280776-15.17037 14.086773-41.537919 10.11358-84.159436 14.086772-126.780953 15.892769-48.400705 2.167196-96.801411 0-146.285714-3.611993 1.444797-1.444797 1.805996-2.528395 2.889594-3.250794 106.914991-69.350265 178.793651-166.151675 225.027161-283.180247 23.839153-59.959083 39.731922-122.446561 47.678307-186.378836 4.334392-33.952734 6.501587-68.266667 9.752381-102.5806 0.361199 0 0.722399-0.361199 1.083598-0.361199zM123.891358 904.804233c8.307584-4.334392 16.615168-9.391182 25.283951-13.003175 24.922751-9.391182 50.929101-11.919577 76.935449-13.364374 48.761905-2.167196 96.801411 2.528395 144.840917 9.391182 62.848677 9.029982 125.336155 18.782363 188.184833 26.728748 49.123104 6.140388 98.607407 9.029982 148.45291 6.501587 45.87231-2.167196 90.661023-8.668783 132.198942-29.618342 19.504762-9.752381 36.842328-22.755556 53.457495-38.648325-0.722399 7.223986-1.083598 14.447972-2.528395 21.671958-8.307584 44.788713-28.895944 81.631041-69.350264 105.470194-25.283951 14.809171-52.735097 20.58836-81.99224 22.033157-35.75873 1.805996-70.795062-3.611993-105.108995-11.197178-94.995414-20.949559-189.62963-43.343915-284.625044-63.932275-44.066314-9.391182-89.938624-16.615168-135.088536-23.839154-14.809171-2.167196-29.979541-2.528395-44.788713-1.805996-14.809171 0.722399-29.618342 3.250794-44.427513 5.05679-0.361199-0.361199-0.722399-1.083598-1.444797-1.444797zM540.715344 124.974956c-20.22716 0.722399-39.731922 1.083598-58.875485 2.528395-80.908642 6.501587-153.5097 34.313933-215.997178 86.326631C198.659612 269.815873 155.315697 341.694533 126.419753 423.325573c-18.059965 50.929101-29.257143 103.302998-29.979541 157.482893 0 6.862787 0.722399 13.725573 0.722398 20.22716-6.501587-27.089947-10.11358-54.902293-10.835979-82.714638-4.334392-177.710053 78.019048-304.852205 230.80635-389.011641 50.929101-27.812346 106.192593-42.260317 163.62328-48.400705 13.364374-1.444797 27.089947-1.444797 40.81552-1.805996 2.167196 0 5.779189 1.805996 6.501588 3.250793 4.695591 14.086772 8.307584 28.173545 12.641975 42.621517z" p-id="8741"></path></svg>