<?xml version="1.0" standalone="no"?><!DOCTYPE svg PUBLIC "-//W3C//DTD SVG 1.1//EN" "http://www.w3.org/Graphics/SVG/1.1/DTD/svg11.dtd"><svg t="1604806363805" class="icon" viewBox="0 0 1024 1024" version="1.1" xmlns="http://www.w3.org/2000/svg" p-id="23793" xmlns:xlink="http://www.w3.org/1999/xlink" width="200" height="200"><defs><style type="text/css"></style></defs><path d="M875.605333 301.781333L597.76 21.333333a76.8 76.8 0 0 0-14.72-11.52c-1.365333-0.768-2.773333-1.578667-4.266667-2.261333-0.896-0.512-1.92-0.896-2.816-1.28A71.552 71.552 0 0 0 546.986667 0H201.984C162.218667 0 129.024 32.213333 129.024 72.021333v880c0 39.765333 33.194667 71.978667 72.96 71.978667h623.018667c39.808 0 70.997333-32.213333 70.997333-72.021333V352.512c0-19.029333-6.997333-37.205333-20.394667-50.730667z m-291.584-191.402666l200.789334 201.642666h-200.789334V110.421333z m240 841.642666H200.96V72.021333H512v240C512 351.786667 545.194667 384 584.96 384h239.061333v568.021333zM333.653333 576H267.008V768h45.994667v-64h22.101333c40.405333 0 75.605333-20.181333 75.605333-65.706667-0.128-47.274667-34.688-62.293333-77.013333-62.293333zM332.8 667.989333h-19.797333v-55.978666h18.517333c22.186667 0 34.474667 6.997333 34.474667 26.410666 0 18.688-10.794667 29.568-33.194667 29.568zM498.517333 576H443.008V768h58.112c55.765333 0 94.378667-30.378667 94.378667-96.981333 0-66.602667-38.613333-95.018667-96.981334-95.018667z m-2.901333 155.008h-5.632v-118.016h5.632c30.890667 0 52.693333 12.8 52.693333 58.325333 0 45.482667-21.802667 59.690667-52.693333 59.690667z m257.365333-116.992V576H631.04V768h45.994667v-72.96h65.024v-38.058667h-65.024v-42.965333h75.989333z" p-id="23794" fill="#989AA2"></path></svg>