<?xml version="1.0" standalone="no"?><!DOCTYPE svg PUBLIC "-//W3C//DTD SVG 1.1//EN" "http://www.w3.org/Graphics/SVG/1.1/DTD/svg11.dtd"><svg t="1604806244580" class="icon" viewBox="0 0 1024 1024" version="1.1" xmlns="http://www.w3.org/2000/svg" p-id="21507" xmlns:xlink="http://www.w3.org/1999/xlink" width="200" height="200"><defs><style type="text/css"></style></defs><path d="M531.243 85.333h57.941v79.446c103.467 0.554 206.933-1.11 310.955 0.554a33.877 33.877 0 0 1 37.632 37.632c1.578 195.584 0 391.254 0.938 586.795a118.443 118.443 0 0 1-9.386 60.032 80.213 80.213 0 0 1-48.982 9.43H589.355v79.445h-60.758c-147.584-27.179-295.424-52.523-443.264-79.062V164.95c148.608-26.624 297.302-52.522 445.91-79.616z" fill="#989AA2" p-id="21508"></path><path d="M588.928 194.517h320v635.35h-320V750.42h252.117V710.7H588.928V661.12h252.117v-39.339H588.928v-50.048h252.117v-39.722H588.928V482.56h252.117v-39.424H588.928V392.96h252.117v-39.723H588.928v-49.706h252.117v497.877H588.928z" fill="#FFFFFF" p-id="21509"></path><path d="M622.89 526.933h252.118v39.723H622.891z m0 68.267h252.118v39.723H622.891z m0 68.267h252.118v39.722H622.891z m-40.96 68.266h293.078v39.723H581.931z" fill="#989AA2" p-id="21510"></path><path d="M235.819 349.91c49.408 2.346 109.184-20.054 150.57 17.791A115.584 115.584 0 0 1 357.12 535.04a130.048 130.048 0 0 1-66.73 8.533v109.184l-54.571-4.608a17372.8 17372.8 0 0 1 0-298.24z" fill="#FFFFFF" p-id="21511"></path><path d="M289.579 400.085c17.877-0.853 40.106-4.266 52.138 12.8a68.693 68.693 0 0 1 1.238 61.099c-10.368 18.816-33.792 17.323-51.968 19.499a1331.968 1331.968 0 0 1-1.408-93.398z m533.632 1.792a70.016 70.016 0 0 1-40.278-16.384 384 384 0 0 0-64.768 20.694c-17.066 29.866-32.64 45.354-46.293 45.354a14.507 14.507 0 0 1-8.192-2.176 16.17 16.17 0 0 1-9.43-14.762c0-4.907 1.11-18.816 52.78-40.96a390.059 390.059 0 0 0 28.885-67.755c-6.571-13.099-20.694-45.27-10.923-61.653a17.067 17.067 0 0 1 16.853-8.747 18.261 18.261 0 0 1 14.208 7.04c7.04 9.43 6.486 30.592-2.73 61.184a164.224 164.224 0 0 0 34.133 43.776 184.49 184.49 0 0 1 34.133-3.755c25.6 0.555 29.44 12.502 28.886 19.67 0 18.816-17.963 18.816-27.179 18.816z m-154.24 35.115l1.877-0.47a37.632 37.632 0 0 0 19.968-14.037 46.933 46.933 0 0 0-21.888 14.635z m77.824-166.955h-1.792a3.67 3.67 0 0 0-2.347 0.555 43.733 43.733 0 0 0 3.499 28.245 44.459 44.459 0 0 0 0.64-28.672z m-3.2 79.915v1.024l-0.555-0.555c-4.523 11.947-9.43 23.723-15.061 35.286l0.938-0.555v1.237a288.341 288.341 0 0 1 33.494-10.538l-0.555-0.47h1.493a163.627 163.627 0 0 1-19.754-25.301z m78.848 28.97a55.083 55.083 0 0 0-15.147 1.409 42.24 42.24 0 0 0 17.493 5.546 21.76 21.76 0 0 0 11.563-1.322c-0.384-2.176-2.73-5.632-14.293-5.632z" fill="#989AA2" p-id="21512"></path></svg>